# ProBuilder 4.5.2
# https://unity3d.com/unity/features/worldbuilding/probuilder
# 28.03.2022 18:13:29

mtllib ./New_Game_Object_(1).mtl
o New Game Object (1)

g New Game Object (1)
v 4.61125E-07 2.414722 -2.93328E-07
v 0.08451794 2.414722 -2.962189
v -2.824601 2.414722 -3.058448
v -2.875007 2.414723 -0.07127314
v -0.4513703 2.414722 0.06436605
v -0.4513707 0 0.06436634
v -2.875008 9.536743E-07 -0.07127285
v -2.824601 0 -3.058448
v 0.08451748 0 -2.962189
v 0 0 0

vt -6.488221E-14 -1.296873E-14
vt -0.08451748 -2.962189
vt 2.824601 -3.058448
vt 2.875008 -0.07127285
vt 0.4513707 0.06436634
vt -0.4513707 0.06436634
vt -2.875008 -0.07127285
vt -2.824601 -3.058448
vt 0.08451748 -2.962189
vt -0.4470689 -1.167723E-08
vt -2.874498 9.419971E-07
vt -0.4470685 2.414722
vt -2.874498 2.414723
vt -0.0227559 3.91707E-07
vt -3.010356 -5.619673E-07
vt -0.0227562 2.414723
vt -3.010356 2.414722
vt 2.924201 3.117811E-07
vt 0.01349027 3.117811E-07
vt 2.924201 2.414722
vt 0.01348981 2.414722
vt 2.963394 9.630968E-16
vt 2.963394 2.414722
vt 3.063602E-07 2.414722
vt -0.455937 -3.093754E-16
vt -0.4559365 2.414722

vn 0 1 0
vn -1.369894E-07 -1 1.041072E-07
vn -0.05587771 1.304904E-07 0.9984376
vn -0.9998577 1.954125E-07 -0.01687189
vn 0.03307065 -1.052119E-07 -0.999453
vn 0.9995932 -1.88406E-07 0.0285205
vn 0.1411738 9.329916E-08 0.9899849

usemtl ProBuilderDefault
f 3/3/1 4/4/1 5/5/1
f 5/5/1 2/2/1 3/3/1
f 5/5/1 1/1/1 2/2/1
f 9/9/2 10/1/2 6/6/2
f 8/8/2 9/9/2 6/6/2
f 6/6/2 7/7/2 8/8/2
f 4/13/3 7/11/3 6/10/3
f 6/10/3 5/12/3 4/13/3
f 3/17/4 8/15/4 7/14/4
f 7/14/4 4/16/4 3/17/4
f 2/21/5 9/19/5 8/18/5
f 8/18/5 3/20/5 2/21/5
f 1/24/6 10/1/6 9/22/6
f 9/22/6 2/23/6 1/24/6
f 5/26/7 6/25/7 10/1/7
f 10/1/7 1/24/7 5/26/7

